# xmcd CD database file
#
# Track frame offsets:
#	150
#	16386
#	29722
#	42648
#	57073
#	70027
#	84310
#	108497
#	119563
#	130192
#	143988
#	161568
#	176277
#	192959
#	209900
#
# Disc length: 2974 seconds
#
# Revision: 1
# Processed by: cddbd v1.5.2PL0 Copyright (c) Steve Scherf et al.
# Submitted via: CDex 1.70beta2
#
DISCID=dc0b9c0f
DTITLE=Rosenberg Trio and Tim Kliphuis - Tribute to Stéphane Grappelli
DYEAR=2008
DGENRE=Jazz
TTITLE0=R-Vingt-Six
TTITLE1=My Melancholy Baby
TTITLE2=Micro
TTITLE3=Si Tu Savais
TTITLE4=Eveline
TTITLE5=What Am I Here For
TTITLE6=You Are The Sunshine Of My Life
TTITLE7=Liza
TTITLE8=Time On My Hands
TTITLE9=How High The Moon
TTITLE10=Nuages
TTITLE11=I Got Rhythm
TTITLE12=I Surrender Dear
TTITLE13=Ol' Man River
TTITLE14=Diminishing
EXTD=YEAR: 2008
EXTT0=
EXTT1=
EXTT2=
EXTT3=
EXTT4=
EXTT5=
EXTT6=
EXTT7=
EXTT8=
EXTT9=
EXTT10=
EXTT11=
EXTT12=
EXTT13=
EXTT14=
PLAYORDER=
